<svg id="Left" xmlns="http://www.w3.org/2000/svg" width="70" height="38" viewBox="0 0 70 38">
  <g id="Secondary_6C757D" data-name="Secondary / #6C757D" fill="none" stroke="#6c757d" stroke-width="1">
    <path d="M0,0H65a5,5,0,0,1,5,5V33a5,5,0,0,1-5,5H0a0,0,0,0,1,0,0V0A0,0,0,0,1,0,0Z" stroke="none"/>
    <path d="M.5.5H65A4.5,4.5,0,0,1,69.5,5V33A4.5,4.5,0,0,1,65,37.5H.5a0,0,0,0,1,0,0V.5A0,0,0,0,1,.5.5Z" fill="none"/>
  </g>
  <text id="Right" transform="translate(35 24)" fill="#6c757d" font-size="16" font-family="HelveticaNeue, Helvetica Neue"><tspan x="-18.816" y="0">Right</tspan></text>
</svg>
